<svg xmlns="http://www.w3.org/2000/svg" viewBox="0 0 400 400" role="img" aria-label="Default album jacket">
  <defs>
    <linearGradient id="paper" x1="0%" y1="0%" x2="100%" y2="100%">
      <stop offset="0%" stop-color="#1e293b"/>
      <stop offset="45%" stop-color="#0f172a"/>
      <stop offset="100%" stop-color="#1e3a5f"/>
    </linearGradient>
    <radialGradient id="glow" cx="30%" cy="25%" r="70%">
      <stop offset="0%" stop-color="rgba(59,130,246,0.28)"/>
      <stop offset="100%" stop-color="rgba(59,130,246,0)"/>
    </radialGradient>
  </defs>
  <rect width="400" height="400" fill="url(#paper)"/>
  <rect width="400" height="400" fill="url(#glow)"/>
  <rect x="18" y="18" width="364" height="364" fill="none" stroke="rgba(255,255,255,0.08)" stroke-width="1.5"/>
  <rect x="0" y="0" width="14" height="400" fill="rgba(0,0,0,0.35)"/>
  <g fill="#fbcfe8" opacity="0.28">
    <g transform="translate(72 78) rotate(-16) scale(1.4)">
      <ellipse cx="0" cy="-8" rx="5" ry="8"/>
      <ellipse cx="7.6" cy="-2.5" rx="5" ry="8" transform="rotate(72)"/>
      <ellipse cx="4.7" cy="6.5" rx="5" ry="8" transform="rotate(144)"/>
      <ellipse cx="-4.7" cy="6.5" rx="5" ry="8" transform="rotate(216)"/>
      <ellipse cx="-7.6" cy="-2.5" rx="5" ry="8" transform="rotate(288)"/>
      <circle cx="0" cy="0" r="3" fill="#fda4af"/>
    </g>
    <g transform="translate(320 300) rotate(18) scale(1.1)">
      <ellipse cx="0" cy="-8" rx="5" ry="8"/>
      <ellipse cx="7.6" cy="-2.5" rx="5" ry="8" transform="rotate(72)"/>
      <ellipse cx="4.7" cy="6.5" rx="5" ry="8" transform="rotate(144)"/>
      <ellipse cx="-4.7" cy="6.5" rx="5" ry="8" transform="rotate(216)"/>
      <ellipse cx="-7.6" cy="-2.5" rx="5" ry="8" transform="rotate(288)"/>
      <circle cx="0" cy="0" r="3" fill="#fda4af"/>
    </g>
  </g>
  <text x="200" y="188" text-anchor="middle" fill="rgba(255,255,255,0.92)" font-size="36" font-family="'Hiragino Sans','Yu Gothic UI','Meiryo',system-ui,sans-serif" font-weight="600" letter-spacing="0.14em">&#12399;&#12394;</text>
  <text x="200" y="226" text-anchor="middle" fill="rgba(255,255,255,0.72)" font-size="16" font-family="'Hiragino Sans','Yu Gothic UI','Meiryo',system-ui,sans-serif" letter-spacing="0.1em">&#12513;&#12487;&#12451;&#12450;&#12508;&#12483;&#12463;&#12473;</text>
</svg>