<svg xmlns="http://www.w3.org/2000/svg" viewBox="0 0 400 400" role="img" aria-label="Jacket style winter snow">
  <defs>
    <linearGradient id="winter" x1="0%" y1="0%" x2="100%" y2="100%">
      <stop offset="0%" stop-color="#07111f"/>
      <stop offset="45%" stop-color="#10233c"/>
      <stop offset="100%" stop-color="#1d4a72"/>
    </linearGradient>
    <radialGradient id="frostGlow" cx="28%" cy="78%" r="55%">
      <stop offset="0%" stop-color="rgba(125,211,252,0.4)"/>
      <stop offset="40%" stop-color="rgba(186,230,253,0.18)"/>
      <stop offset="100%" stop-color="rgba(125,211,252,0)"/>
    </radialGradient>
    <radialGradient id="flakeGlow" cx="50%" cy="50%" r="50%">
      <stop offset="0%" stop-color="rgba(240,249,255,0.95)"/>
      <stop offset="35%" stop-color="rgba(186,230,253,0.45)"/>
      <stop offset="100%" stop-color="rgba(125,211,252,0)"/>
    </radialGradient>
    <linearGradient id="hanaFill" x1="0%" y1="0%" x2="100%" y2="100%">
      <stop offset="0%" stop-color="#f0f9ff"/>
      <stop offset="55%" stop-color="#bae6fd"/>
      <stop offset="100%" stop-color="#e2e8f0"/>
    </linearGradient>
  </defs>

  <rect width="400" height="400" fill="url(#winter)"/>
  <rect width="400" height="400" fill="url(#frostGlow)"/>
  <rect x="0" y="0" width="14" height="400" fill="rgba(0,0,0,0.4)"/>
  <rect x="0" y="0" width="58" height="400" fill="rgba(6,12,24,0.78)"/>
  <rect x="0" y="0" width="14" height="400" fill="rgba(0,0,0,0.45)"/>
  <rect x="68" y="28" width="304" height="344" fill="none" stroke="rgba(186,230,253,0.16)" stroke-width="1"/>

  <g transform="translate(262 300)" opacity="0.88">
    <circle cx="0" cy="0" r="104" fill="#070c14"/>
    <circle cx="0" cy="0" r="78" fill="none" stroke="rgba(186,230,253,0.07)" stroke-width="1"/>
    <circle cx="0" cy="0" r="52" fill="none" stroke="rgba(125,211,252,0.06)" stroke-width="1"/>
    <circle cx="0" cy="0" r="17" fill="#1e3a8a"/>
  </g>

  <!-- large crystal snowflake -->
  <g transform="translate(96 318)">
    <circle cx="0" cy="0" r="34" fill="url(#flakeGlow)" opacity="0.75"/>
    <g stroke="rgba(240,249,255,0.95)" stroke-width="2" stroke-linecap="round" stroke-linejoin="round">
      <line x1="0" y1="-36" x2="0" y2="36"/>
      <line x1="-31" y1="-18" x2="31" y2="18"/>
      <line x1="-31" y1="18" x2="31" y2="-18"/>
      <path d="M0 -28 L-7 -20 M0 -28 L7 -20"/>
      <path d="M0 28 L-7 20 M0 28 L7 20"/>
      <path d="M24 -14 L15 -18 M24 -14 L20 -5"/>
      <path d="M-24 14 L-15 18 M-24 14 L-20 5"/>
      <path d="M24 14 L15 18 M24 14 L20 5"/>
      <path d="M-24 -14 L-15 -18 M-24 -14 L-20 -5"/>
      <path d="M0 -16 L-5 -11 M0 -16 L5 -11"/>
      <path d="M0 16 L-5 11 M0 16 L5 11"/>
      <path d="M14 -8 L8 -11 M14 -8 L12 -2"/>
      <path d="M-14 8 L-8 11 M-14 8 L-12 2"/>
      <path d="M14 8 L8 11 M14 8 L12 2"/>
      <path d="M-14 -8 L-8 -11 M-14 -8 L-12 -2"/>
    </g>
    <circle cx="0" cy="0" r="4.2" fill="#f0f9ff"/>
    <circle cx="0" cy="0" r="2" fill="#7dd3fc"/>
    <g fill="#e0f2fe" opacity="0.9">
      <circle cx="0" cy="-22" r="1.8"/>
      <circle cx="19" cy="-11" r="1.5"/>
      <circle cx="19" cy="11" r="1.5"/>
      <circle cx="0" cy="22" r="1.8"/>
      <circle cx="-19" cy="11" r="1.5"/>
      <circle cx="-19" cy="-11" r="1.5"/>
    </g>
  </g>

  <g transform="translate(158 356) scale(0.72)">
    <circle cx="0" cy="0" r="26" fill="url(#flakeGlow)" opacity="0.65"/>
    <g stroke="rgba(186,230,253,0.95)" stroke-width="1.8" stroke-linecap="round">
      <line x1="0" y1="-28" x2="0" y2="28"/>
      <line x1="-24" y1="-14" x2="24" y2="14"/>
      <line x1="-24" y1="14" x2="24" y2="-14"/>
      <path d="M0 -20 L-5 -14 M0 -20 L5 -14"/>
      <path d="M0 20 L-5 14 M0 20 L5 14"/>
      <path d="M17 -10 L11 -13 M17 -10 L14 -4"/>
      <path d="M-17 10 L-11 13 M-17 10 L-14 4"/>
      <path d="M17 10 L11 13 M17 10 L14 4"/>
      <path d="M-17 -10 L-11 -13 M-17 -10 L-14 -4"/>
    </g>
    <circle cx="0" cy="0" r="3.2" fill="#f0f9ff"/>
    <circle cx="12" cy="-14" r="1.4" fill="#bae6fd"/>
  </g>

  <g transform="translate(48 292) scale(0.48)" opacity="0.9">
    <g stroke="rgba(224,242,254,0.92)" stroke-width="1.7" stroke-linecap="round">
      <line x1="0" y1="-22" x2="0" y2="22"/>
      <line x1="-19" y1="-11" x2="19" y2="11"/>
      <line x1="-19" y1="11" x2="19" y2="-11"/>
      <path d="M0 -14 L-4 -9 M0 -14 L4 -9"/>
      <path d="M0 14 L-4 9 M0 14 L4 9"/>
      <path d="M12 -7 L7 -10 M12 -7 L10 -2"/>
      <path d="M-12 7 L-7 10 M-12 7 L-10 2"/>
    </g>
    <circle cx="0" cy="0" r="2.4" fill="#e0f2fe"/>
  </g>

  <g transform="translate(178 378) scale(0.36)" opacity="0.85">
    <g stroke="#7dd3fc" stroke-width="1.8" stroke-linecap="round">
      <line x1="0" y1="-18" x2="0" y2="18"/>
      <line x1="-16" y1="-9" x2="16" y2="9"/>
      <line x1="-16" y1="9" x2="16" y2="-9"/>
    </g>
    <circle cx="0" cy="0" r="2" fill="#f0f9ff"/>
  </g>

  <g transform="translate(64 348) scale(0.42)" opacity="0.8">
    <g stroke="rgba(186,230,253,0.9)" stroke-width="1.6" stroke-linecap="round">
      <line x1="0" y1="-20" x2="0" y2="20"/>
      <line x1="-17" y1="-10" x2="17" y2="10"/>
      <line x1="-17" y1="10" x2="17" y2="-10"/>
      <path d="M0 -12 L-3 -8 M0 -12 L3 -8"/>
      <path d="M0 12 L-3 8 M0 12 L3 8"/>
    </g>
    <circle cx="0" cy="0" r="2.1" fill="#bae6fd"/>
  </g>

  <text x="32" y="200" fill="url(#hanaFill)" font-size="15" font-family="'Hiragino Mincho ProN','Yu Mincho',Georgia,serif" writing-mode="tb" letter-spacing="0.22em">&#12399;&#12394;</text>

  <g fill="#f0f9ff" opacity="0.7">
    <circle cx="40" cy="236" r="1.8"/>
    <circle cx="78" cy="252" r="1.3"/>
    <circle cx="118" cy="276" r="1.6"/>
    <circle cx="148" cy="312" r="1.4"/>
    <circle cx="42" cy="368" r="1.5"/>
    <circle cx="88" cy="378" r="1.2"/>
    <circle cx="132" cy="388" r="1.4"/>
    <circle cx="196" cy="358" r="1.3"/>
    <circle cx="168" cy="332" r="1.1"/>
    <circle cx="56" cy="320" r="1.2"/>
  </g>
  <g fill="#7dd3fc" opacity="0.55">
    <circle cx="104" cy="340" r="1.4"/>
    <circle cx="72" cy="300" r="1.1"/>
    <circle cx="156" cy="372" r="1.3"/>
    <circle cx="48" cy="268" r="1.2"/>
    <circle cx="188" cy="378" r="1"/>
  </g>
  <g fill="#bae6fd" opacity="0.45">
    <circle cx="126" cy="296" r="1.1"/>
    <circle cx="94" cy="362" r="1.3"/>
    <circle cx="176" cy="348" r="1.1"/>
  </g>
</svg>
